<svg height="800" width="800" version="1.1" id="Layer_1" xmlns="http://www.w3.org/2000/svg" viewBox="0 0 512 512" xml:space="preserve"><path style="fill:#2d527c" d="M60.761 139.885c-7.81 0-14.144-6.332-14.144-14.144V60.76c0-7.812 6.334-14.144 14.144-14.144h64.979c7.81 0 14.144 6.332 14.144 14.144s-6.334 14.144-14.144 14.144H74.905v50.837c0 7.812-6.334 14.144-14.144 14.144zM451.239 465.384H386.26c-7.81 0-14.144-6.332-14.144-14.144s6.334-14.144 14.144-14.144h50.835V386.26c0-7.812 6.334-14.144 14.144-14.144 7.81 0 14.144 6.332 14.144 14.144v64.98c0 7.81-6.333 14.144-14.144 14.144z"/><path style="fill:#2d527c" d="M497.856 512H14.144C6.334 512 0 505.668 0 497.856V14.144C0 6.332 6.334 0 14.144 0h483.713C505.667 0 512 6.332 512 14.144v483.713c0 7.811-6.333 14.143-14.144 14.143zM28.287 483.713h455.425V28.287H28.287v455.426z"/><path style="fill:#cee8fa" d="M203.961 392.475c-15.96 0-28.945-13.023-28.945-29.031v-.711c0-2.146.489-4.264 1.429-6.194l.952-1.953 18.172-56.507c-4.649 3.772-10.717 5.953-17.606 5.953-9.612 0-18.003-4.549-23.627-12.808a14.371 14.371 0 0 1-.67-1.085c-9.985-17.95-15.047-37.024-15.047-56.693 0-62.816 52.658-113.92 117.385-113.92 64.617 0 117.197 51.009 117.3 113.74 1.09 31.004-9.038 59.934-27.799 79.395-17.5 18.153-41.865 27.75-70.455 27.75-11.427 0-22.367-3.013-31.364-8.404l-12.833 40.983c-.24.767-.545 1.511-.912 2.225l-1.502 2.929c-.256.499-.542.984-.854 1.45-5.599 8.305-13.986 12.881-23.624 12.881zm39.844-205.33c21.088 0 34.189 12.42 34.189 32.412 0 14.326-5.293 25.184-9.546 33.909-3.226 6.621-6.011 12.333-6.011 18.155 0 6.718 5.892 12.61 12.609 12.61 33.601 0 45.524-26.401 45.524-49.009 0-32.76-28.207-59.41-62.877-59.41s-62.876 26.652-62.876 59.41c0 9.234 2.263 17.749 7.565 28.456 1.184 2.339 1.875 4.276 2.279 6.12l2.833-8.809c-1.164-4.641-3.034-13.937-3.034-25.768.002-35.484 21.196-48.076 39.345-48.076z"/><path style="fill:#2d527c" d="M256.003 133.669c56.88 0 103.157 44.759 103.157 99.776l.003.156c.997 27.255-7.691 52.493-23.841 69.244-14.772 15.323-35.615 23.422-60.273 23.422-13.448 0-25.835-5.243-33.137-14.026l-4.981-5.993-19.575 62.515-1.502 2.929c-2.969 4.406-6.969 6.639-11.891 6.639-8.024 0-14.801-6.817-14.801-14.888v-.711l1.392-2.858 31.738-98.696-.44-1.318c-.03-.092-3.247-10.025-3.247-24.637 0-30.627 17.623-33.933 25.2-33.933 13.301 0 20.046 6.147 20.046 18.268 0 11.065-4.127 19.531-8.117 27.717-3.658 7.503-7.44 15.262-7.44 24.347 0 14.501 12.251 26.754 26.753 26.754 41.217 0 59.668-31.719 59.668-63.153 0-40.558-34.552-73.554-77.021-73.554-42.468 0-77.019 32.997-77.019 73.554 0 11.42 2.796 22.15 9.065 34.795 1.334 2.622 1.334 3.499 1.334 6.761 0 8.087-5.024 13.111-13.113 13.111-4.928 0-8.943-2.229-11.936-6.625-8.803-15.824-13.264-32.583-13.264-49.818 0-55.018 46.314-99.778 103.242-99.778m0-28.288c-72.526 0-131.529 57.449-131.529 128.064 0 22.105 5.663 43.493 16.831 63.57a28.4 28.4 0 0 0 1.338 2.17c7.506 11.024 18.896 17.753 31.653 18.836l-10.058 31.274-.511 1.048a28.276 28.276 0 0 0-2.856 12.387v.711c0 23.807 19.33 43.175 43.089 43.175 14.279 0 27.164-6.97 35.351-19.122a28.527 28.527 0 0 0 1.713-2.901l1.502-2.929a28.278 28.278 0 0 0 1.822-4.451l8.141-26a77.507 77.507 0 0 0 22.558 3.339c32.523 0 60.409-11.091 80.639-32.076 21.36-22.156 32.924-54.746 31.76-89.471-.245-70.412-59.115-127.624-131.443-127.624zm20.787 164.675c.62-2.69 2.52-6.592 4.372-10.387 4.635-9.509 10.977-22.522 10.977-40.111 0-7.11-1.266-13.622-3.632-19.381 10.933 8.308 17.921 20.933 17.921 35.047-.002 10.263-2.931 33.852-29.638 34.832z"/></svg>