<svg xmlns="http://www.w3.org/2000/svg" aria-hidden="true" style="position:absolute;width:0;height:0;overflow:hidden">
    <defs>
        <symbol id="icon-arrow-back" viewBox="0 0 32 32">
            <path fill="#fff"
                d="M4.5 19.6 15.7 8.367c.133-.133.278-.228.433-.283s.322-.084.5-.084.345.028.5.084.3.149.433.283L28.799 19.6c.311.311.467.7.467 1.167s-.167.867-.5 1.2c-.333.333-.722.5-1.167.5s-.833-.167-1.167-.5l-9.8-9.8-9.8 9.8c-.311.311-.694.467-1.149.467s-.851-.167-1.184-.5-.5-.722-.5-1.167c0-.444.167-.833.5-1.167z"
                style="fill:var(--color1, #fff)" />
        </symbol>
        <symbol id="icon-arrow-right" viewBox="0 0 32 32">
            <path fill="#fff" 
                d="M17.867 16.946a1.334 1.334 0 0 0 0-1.894l-6.12-6.107a1.334 1.334 0 1 1 1.88-1.894l6.12 6.12a4.001 4.001 0 0 1 0 5.654l-6.12 6.12a1.337 1.337 0 0 1-2.172-.434 1.331 1.331 0 0 1 .292-1.46l6.12-6.107z" style="fill:var(--color1, #fff)"/>
        </symbol>
        <symbol id="icon-arrow-left" viewBox="0 0 32 32">
            <path fill="#fff" 
                d="M14.133 16.946a1.334 1.334 0 0 1 0-1.894l6.12-6.107a1.334 1.334 0 1 0-1.88-1.894l-6.12 6.12a4.001 4.001 0 0 0 0 5.654l6.12 6.12a1.337 1.337 0 0 0 2.172-.434 1.331 1.331 0 0 0-.292-1.46l-6.12-6.107z" style="fill:var(--color1, #fff)"/>
        </symbol>
        <symbol id="icon-arrow-double-left" viewBox="0 0 32 32">
            <path fill="#fff" 
                d="M10.133 16.946a1.334 1.334 0 0 1 0-1.894l6.12-6.107a1.334 1.334 0 1 0-1.88-1.894l-6.12 6.12a4.001 4.001 0 0 0 0 5.654l6.12 6.12a1.337 1.337 0 0 0 2.172-.434 1.331 1.331 0 0 0-.292-1.46l-6.12-6.107z" style="fill:var(--color1, #fff)"/>
            <path fill="#fff" 
                d="M20.133 16.946a1.334 1.334 0 0 1 0-1.894l6.12-6.107a1.334 1.334 0 1 0-1.88-1.894l-6.12 6.12a4.001 4.001 0 0 0 0 5.654l6.12 6.12a1.337 1.337 0 0 0 2.172-.434 1.331 1.331 0 0 0-.292-1.46l-6.12-6.107z" style="fill:var(--color1, #fff)"/>
        </symbol>
        <symbol id="icon-arrow-double-right" viewBox="0 0 32 32">
            <path fill="#fff" 
                d="M10.133 16.946a1.334 1.334 0 0 0 0-1.894l-6.12-6.107a1.334 1.334 0 1 1 1.88-1.894l6.12 6.12a4.001 4.001 0 0 1 0 5.654l-6.12 6.12a1.337 1.337 0 0 1-2.172-.434 1.331 1.331 0 0 1 .292-1.46l6.12-6.107z" style="fill:var(--color1, #fff)"/>
            <path fill="#fff" 
                d="M20.133 16.946a1.334 1.334 0 0 0 0-1.894l-6.12-6.107a1.334 1.334 0 1 1 1.88-1.894l6.12 6.12a4.001 4.001 0 0 1 0 5.654l-6.12 6.12a1.337 1.337 0 0 1-2.172-.434 1.331 1.331 0 0 1 .292-1.46l6.12-6.107z" style="fill:var(--color1, #fff)"/>
        </symbol>
    </defs>
</svg>